<?xml version="1.0" standalone="no"?>
<!DOCTYPE svg PUBLIC "-//W3C//DTD SVG 20010904//EN"
 "http://www.w3.org/TR/2001/REC-SVG-20010904/DTD/svg10.dtd">
<svg version="1.0" xmlns="http://www.w3.org/2000/svg"
 width="377.000000pt" height="377.000000pt" viewBox="0 0 377.000000 377.000000"
 preserveAspectRatio="xMidYMid meet">
<metadata>
Created by potrace 1.14, written by Peter Selinger 2001-2017
</metadata>
<g transform="translate(0.000000,377.000000) scale(0.100000,-0.100000)"
fill="#000000" stroke="none">
<path d="M1359 2698 c-5 -14 -4 -88 1 -88 4 0 7 20 6 45 0 38 -3 54 -7 43z"/>
<path d="M1495 2671 l-50 -26 0 -89 c0 -71 3 -90 15 -92 8 -1 41 -12 73 -24
53 -20 80 -21 122 -6 6 2 25 7 43 11 l32 8 0 96 0 96 -67 25 c-86 32 -107 32
-168 1z"/>
<path d="M1960 2650 c-93 -37 -110 -56 -110 -124 0 -55 15 -78 68 -106 44 -22
17 -19 -55 7 l-71 25 -88 -36 c-90 -36 -117 -57 -108 -81 9 -22 -13 -26 -55
-9 -25 10 -52 14 -69 10 -15 -3 -38 -9 -52 -12 -13 -3 -26 -7 -29 -10 -2 -2
-11 2 -19 9 -11 8 -14 8 -9 0 4 -6 3 -14 -2 -17 -7 -5 -8 -61 -1 -91 1 -5 1
-12 0 -15 -5 -14 -6 -50 -1 -50 4 0 17 7 29 16 38 26 72 25 85 -3 14 -31 -7
-54 -51 -55 -18 -1 -32 -6 -32 -12 0 -6 -5 -5 -12 2 -14 14 -32 16 -23 3 3 -6
-4 -15 -16 -21 -27 -15 -17 -25 51 -48 55 -19 78 -42 41 -42 -11 0 -23 -4 -26
-10 -3 -5 -15 -10 -26 -10 -39 0 -49 -23 -49 -110 0 -80 0 -81 -22 -73 -35 12
-69 8 -113 -13 l-40 -19 0 -69 0 -69 61 -23 c58 -21 63 -22 116 -7 l55 16 -2
44 c-1 24 1 46 5 48 4 2 31 -5 62 -16 l55 -21 -3 -71 c-1 -40 -2 -77 -3 -83
-1 -15 -54 -10 -79 8 -12 8 -20 17 -17 19 2 3 -4 5 -14 6 -13 1 -18 -4 -16
-15 2 -9 4 -27 4 -39 1 -14 12 -28 31 -38 16 -8 31 -15 32 -14 2 0 17 -5 33
-11 40 -16 70 -14 130 8 l49 18 1 91 1 92 -41 16 c-40 17 -40 17 -15 28 109
47 99 45 149 29 25 -8 57 -16 71 -19 30 -5 200 54 201 70 1 7 1 36 2 65 0 33
5 52 13 52 6 0 41 -11 77 -25 70 -26 73 -26 180 15 64 24 58 6 61 178 0 52 -3
97 -9 102 -13 10 -176 80 -187 80 -5 0 -9 -53 -8 -117 1 -65 1 -123 1 -129 -1
-10 -49 -32 -107 -48 -20 -6 -21 -3 -20 34 2 49 0 52 -44 75 l-35 18 30 13
c17 6 33 10 38 7 8 -5 9 6 11 112 1 44 4 81 9 83 4 2 21 1 37 -3 29 -6 182 36
204 56 14 12 15 256 2 273 -15 19 -184 86 -216 85 -14 0 -59 -13 -100 -29z
m-370 -640 c0 -24 -9 -25 -36 -5 -14 11 -15 14 -3 9 10 -3 20 -1 24 5 10 16
15 13 15 -9z"/>
<path d="M1354 2570 c0 -16 3 -30 6 -30 4 0 7 14 7 30 0 17 -3 30 -7 30 -3 0
-6 -13 -6 -30z"/>
<path d="M1173 2535 c0 -8 4 -12 9 -9 5 3 6 10 3 15 -9 13 -12 11 -12 -6z"/>
<path d="M1227 2509 c-9 -5 -20 -8 -25 -5 -5 3 -8 -55 -3 -85 2 -14 51 -27 91
-24 42 4 76 27 65 46 -3 4 1 10 7 12 10 4 10 6 1 6 -7 1 -13 12 -13 25 0 13 6
26 13 29 6 2 0 4 -15 4 -16 0 -25 -4 -22 -9 4 -6 -3 -5 -14 1 -26 14 -61 14
-85 0z"/>
<path d="M2393 2478 c-18 -6 -33 -17 -34 -24 0 -8 -1 -27 -1 -44 0 -16 1 -36
1 -44 1 -20 80 -44 114 -35 15 4 27 5 27 2 0 -3 7 0 15 7 10 8 15 31 15 65 0
52 0 53 -40 69 -45 18 -52 18 -97 4z"/>
<path d="M1110 2253 c-15 -4 -40 -14 -50 -18 -3 -2 -15 -6 -27 -10 -21 -7 -23
-13 -23 -80 0 -46 5 -76 13 -82 6 -5 37 -18 68 -28 55 -18 58 -18 110 1 l53
19 1 65 c0 36 -1 72 -3 80 -3 13 -105 62 -122 59 -3 0 -12 -3 -20 -6z"/>
<path d="M2503 2053 c-36 -12 -43 -19 -44 -41 -1 -15 -2 -34 -3 -42 -3 -29 13
-47 53 -58 33 -10 46 -10 78 3 38 15 39 16 38 66 -1 49 -2 51 -40 68 -36 16
-44 16 -82 4z"/>
<path d="M1015 1904 c-22 -7 -40 -14 -41 -14 0 0 -1 -20 -1 -45 -1 -43 1 -46
36 -61 44 -19 110 -5 112 24 4 60 -11 94 -41 97 -3 0 -10 3 -15 7 -6 3 -28 0
-50 -8z"/>
<path d="M2310 1806 l-55 -22 0 -75 0 -74 60 -21 c33 -12 67 -20 76 -19 34 7
99 28 100 34 1 3 2 39 3 79 l2 72 -50 19 c-28 11 -58 22 -66 25 -8 3 -40 -5
-70 -18z"/>
<path d="M2046 1683 c-4 -4 -14 -8 -23 -9 -10 -2 -26 -8 -38 -13 -11 -6 -33
-15 -48 -21 -18 -6 -28 -17 -26 -27 1 -10 1 -31 0 -46 -1 -27 -3 -28 -32 -22
-21 5 -49 0 -90 -15 -69 -26 -77 -43 -69 -143 l5 -62 78 -26 78 -27 52 20 c61
23 67 30 67 84 l0 41 38 -10 c31 -8 50 -6 104 12 l66 22 -2 91 c-1 87 -2 91
-26 101 -28 12 -112 49 -121 53 -3 2 -9 0 -13 -3z"/>
<path d="M2784 1302 c-7 -4 -14 -36 -17 -70 -5 -60 -12 -81 -21 -71 -2 2 -18
32 -35 66 -25 51 -34 61 -52 58 -36 -7 -40 5 46 -140 17 -30 30 -40 49 -41 29
-1 35 5 42 39 2 12 10 55 18 95 12 66 12 72 -3 72 -9 0 -21 -4 -27 -8z"/>
<path d="M2212 1268 c-42 -9 -44 -11 -38 -41 3 -18 8 -50 12 -72 3 -22 8 -43
10 -46 2 -4 6 -24 10 -45 3 -22 9 -43 13 -47 11 -11 132 21 155 41 29 27 43
64 40 106 -9 94 -81 132 -202 104z m102 -38 c32 -12 48 -43 48 -93 -1 -46 -4
-51 -53 -71 -54 -23 -56 -20 -74 116 -5 39 -4 47 12 51 30 8 41 7 67 -3z"/>
<path d="M2514 1263 c-38 -7 -59 -41 -59 -94 0 -40 5 -54 27 -76 35 -35 99
-36 129 -2 10 12 19 25 19 28 0 14 -39 9 -44 -5 -9 -23 -63 -18 -71 7 -8 25
-7 26 30 33 83 15 86 17 79 39 -11 38 -35 69 -49 63 -8 -3 -17 -1 -20 4 -4 6
-9 9 -13 9 -4 -1 -17 -4 -28 -6z m56 -53 c6 -11 7 -20 3 -21 -4 0 -21 -2 -37
-4 -39 -5 -48 2 -33 25 15 26 53 26 67 0z"/>
<path d="M2117 1193 c-9 -2 -15 -8 -12 -13 3 -5 1 -11 -4 -14 -5 -4 -12 -2
-16 4 -3 5 -15 10 -26 10 -22 0 -22 7 1 -124 5 -33 10 -61 10 -64 0 -2 10 -2
23 0 12 2 21 9 19 16 -1 8 -5 40 -9 72 -6 57 -5 60 21 71 14 7 26 20 26 31 0
18 -2 19 -33 11z"/>
<path d="M1599 1165 c-2 -20 8 -103 15 -113 2 -4 7 -29 10 -56 16 -113 51
-115 51 -2 0 57 4 79 15 86 17 11 52 -8 56 -31 1 -8 5 -32 9 -54 9 -59 12 -64
34 -58 17 4 20 12 16 37 -8 62 -24 119 -37 133 -17 17 -58 25 -58 12 0 -6 -4
-8 -9 -4 -5 3 -17 -5 -25 -17 -9 -12 -16 -20 -17 -18 -14 89 -18 99 -39 97
-11 -1 -21 -6 -21 -12z"/>
<path d="M1864 1133 c-13 -12 -24 -26 -25 -30 0 -4 -2 -17 -4 -28 -13 -62 50
-131 105 -115 44 13 70 30 70 45 0 20 -36 19 -44 0 -11 -30 -76 -12 -76 21 0
14 15 20 69 29 62 11 66 24 21 73 -35 39 -78 41 -116 5z m96 -44 c0 -5 -9 -9
-19 -9 -11 0 -26 -3 -35 -6 -28 -11 -32 26 -5 47 24 18 24 18 42 -2 9 -12 17
-25 17 -30z"/>
<path d="M1288 1123 c-10 -3 -18 -14 -18 -25 0 -14 5 -18 16 -14 9 3 20 6 25
6 11 0 12 27 2 33 -5 2 -16 2 -25 0z"/>
<path d="M1458 1071 c-17 -15 -26 -16 -40 -8 -28 18 -38 -2 -28 -53 14 -74 20
-112 27 -162 5 -43 9 -48 30 -48 24 0 25 2 18 50 -7 48 -6 49 17 44 59 -14 92
9 96 68 3 36 -14 92 -31 107 -24 19 -66 20 -89 2z m56 -43 c9 -12 16 -41 16
-64 0 -40 -12 -53 -52 -54 -12 0 -30 41 -35 76 -8 58 41 86 71 42z"/>
<path d="M1280 1035 c0 -5 7 -47 16 -92 15 -76 19 -83 41 -83 20 0 23 4 18 28
-3 15 -11 57 -17 94 -10 62 -12 67 -34 66 -13 -1 -24 -7 -24 -13z"/>
<path d="M1140 1018 c0 -6 -3 -8 -7 -5 -3 4 -12 -1 -19 -11 -8 -10 -13 -12
-14 -4 0 10 -50 19 -50 9 0 -2 4 -28 10 -58 5 -30 12 -67 14 -83 6 -36 20 -50
40 -43 14 6 15 32 1 117 -4 24 14 50 34 50 27 0 40 -21 47 -73 14 -101 60
-104 50 -4 -9 83 -31 117 -73 117 -19 0 -33 -5 -33 -12z"/>
<path d="M900 983 c-80 -30 -57 -113 31 -113 46 0 70 -23 40 -39 -24 -13 -58
-14 -65 -2 -3 5 -15 7 -26 4 -15 -4 -17 -9 -10 -23 13 -24 55 -29 105 -12 43
14 55 26 55 59 0 34 -27 53 -74 53 -50 0 -79 22 -49 38 10 5 25 8 33 6 8 -1
25 -5 37 -8 29 -6 38 8 17 28 -15 16 -64 20 -94 9z"/>
<path d="M2071 698 c-1 -27 3 -48 7 -48 4 0 6 17 4 38 -5 58 -10 62 -11 10z"/>
<path d="M1324 719 c-7 -12 36 -52 46 -43 4 5 -12 18 -35 28 -6 3 -3 9 5 15 9
7 10 11 3 11 -6 0 -15 -5 -19 -11z"/>
<path d="M1808 723 c7 -3 16 -2 19 1 4 3 -2 6 -13 5 -11 0 -14 -3 -6 -6z"/>
<path d="M1855 714 c9 -9 13 -24 10 -35 -4 -11 -2 -19 4 -19 6 0 11 10 11 23
0 23 -17 47 -33 47 -5 0 -1 -7 8 -16z"/>
<path d="M1459 716 c-7 -9 -7 -56 -1 -60 5 -3 9 4 8 16 0 12 5 23 12 25 7 3
12 -5 12 -23 0 -33 13 -24 15 10 0 18 -6 26 -22 29 -13 2 -23 4 -24 3z"/>
<path d="M1390 690 c-6 -11 -7 -20 -2 -20 6 0 12 9 15 20 3 11 3 20 1 20 -2 0
-8 -9 -14 -20z"/>
<path d="M1531 688 c10 -22 15 -25 26 -17 10 9 13 7 13 -7 0 -13 3 -15 11 -7
9 9 8 16 -4 27 -11 12 -17 13 -20 3 -3 -8 -10 -6 -21 8 -16 19 -16 19 -5 -7z"/>
<path d="M1640 689 c0 -11 4 -18 10 -14 5 3 7 12 3 20 -7 21 -13 19 -13 -6z"/>
<path d="M1674 680 c0 -34 9 -31 13 5 2 14 0 25 -5 25 -5 0 -8 -13 -8 -30z"/>
<path d="M1710 681 c3 -14 14 -27 23 -27 13 -2 14 -1 2 3 -21 6 -19 20 6 26
13 4 18 10 14 17 -6 9 -10 9 -16 -1 -5 -8 -9 -9 -9 -3 0 6 -6 11 -14 11 -10 0
-11 -8 -6 -26z"/>
<path d="M1805 680 c-1 -16 3 -30 7 -30 4 0 8 14 8 30 0 17 -3 30 -8 30 -4 0
-7 -13 -7 -30z"/>
<path d="M1900 695 c-14 -17 -7 -45 12 -44 10 0 10 2 1 6 -20 7 -15 23 7 23
13 0 18 5 14 15 -8 19 -18 19 -34 0z"/>
<path d="M1956 680 c17 -28 34 -25 34 5 0 6 -5 3 -10 -5 -9 -13 -10 -13 -11 0
-1 8 -1 18 0 23 0 4 -6 7 -15 7 -13 0 -13 -4 2 -30z"/>
<path d="M2036 698 c5 -8 2 -9 -10 -5 -14 5 -17 2 -14 -15 2 -12 9 -23 16 -24
7 -1 8 0 2 3 -15 7 -12 23 5 23 8 0 15 7 15 15 0 8 -5 15 -11 15 -5 0 -7 -5
-3 -12z"/>
<path d="M2104 695 c-8 -20 2 -45 18 -45 10 0 10 3 -1 9 -8 5 -12 18 -8 30 6
24 -1 29 -9 6z"/>
<path d="M2137 687 c3 -15 9 -24 14 -21 5 3 9 -2 9 -10 0 -9 4 -16 10 -16 5 0
8 12 7 27 -1 15 4 28 12 31 10 3 13 -2 9 -22 -4 -19 -2 -24 5 -17 7 7 17 7 31
-1 17 -8 19 -8 9 2 -12 13 -7 40 9 40 5 0 6 -4 3 -10 -3 -5 -1 -10 5 -10 14 0
8 22 -7 27 -6 2 -18 -3 -26 -11 -13 -14 -16 -14 -21 -1 -5 15 -47 22 -45 8 4
-22 -3 -25 -15 -8 -13 18 -14 18 -9 -8z"/>
<path d="M2283 679 c1 -15 6 -25 10 -22 5 3 6 11 3 18 -2 7 0 17 5 22 6 6 4
10 -5 10 -10 0 -14 -9 -13 -28z"/>
<path d="M1423 689 c3 -9 0 -23 -6 -30 -7 -8 -3 -6 8 3 16 15 17 20 6 30 -11
11 -13 10 -8 -3z"/>
<path d="M1614 679 c-9 -15 11 -32 32 -26 15 4 14 5 -5 6 -16 1 -21 5 -17 16
6 17 0 20 -10 4z"/>
</g>
</svg>
